# xmcd
#
# Track frame offsets:
#	183
#	10098
#	26960
#	39283
#	53403
#	64320
#	73518
#	86788
#	97120
#	108515
#	120540
#	132443
#	144190
#	154328
#	167640
#	177645
#	191500
#	199895
#
# Disc length: 2826 seconds
#
# Revision: 4
# Processed by: cddbd v1.5.2PL0 Copyright (c) Steve Scherf et al.
# Submitted via: audiograbber 1.83.01
#
DISCID=000b0812
DTITLE=Various Artist - Country And Western Songs Vol. 3
DYEAR=1991
DGENRE=Country
TTITLE0=Bobby Bare - West Virginia Woman  1971
TTITLE1=Freddy Quinn - Help Me Make It Through Night  1987
TTITLE2=Dave Dudley - If I Cloud Change Mary´s Mind  1982
TTITLE3=Ferlin Husky - Little Tom  1987
TTITLE4=Bobby Bare - The Puppy And The Parakeet  1987
TTITLE5=Buddy Meredith - I´m Coming Back In Style  1970
TTITLE6=George Kent - Mama Bake a Pie, Daddy Kill a Chicken  1976
TTITLE7=Dava Dudley - The Night You Broke The News  1979
TTITLE8=Billy Grammer - Mabel, You Have Been A Friend To Me  1970
TTITLE9=Freddy Quinn - On Top Of Old Smoky  1987
TTITLE10=Bobby Lord - Good Old Song  1970
TTITLE11=Bobby Bare - Please Don´t Tell Me How The Story Ends  1970
TTITLE12=Bud Logan - I Was On My Way  1970
TTITLE13=Linda Manning - If Only For A Moment  1970
TTITLE14=Bobby Joe Bratcher - Oh, My Darlin´Clementine  1987
TTITLE15=George Kent - Doogie Ray  1976
TTITLE16=Bobby Joe Bratcher - Oh, Susanna  1987
TTITLE17=Dave Dudley - How Come It Took So Long To Say Goodbye  1979
EXTD=
EXTT0=
EXTT1=
EXTT2=
EXTT3=
EXTT4=
EXTT5=
EXTT6=
EXTT7=
EXTT8=
EXTT9=
EXTT10=
EXTT11=
EXTT12=
EXTT13=
EXTT14=
EXTT15=
EXTT16=
EXTT17=
PLAYORDER=
